<svg width="44" height="100" viewBox="0 0 44 100" fill="none" xmlns="http://www.w3.org/2000/svg">
<path d="M15.625 6.25H18.75V18.75H15.625V6.25Z" fill="url(#paint0_linear_98_98)"/>
<path d="M25 6.25H28.125V18.75H25V6.25Z" fill="url(#paint1_linear_98_98)"/>
<path d="M37.5 21.875V0H6.25V21.875H0V100H43.75V21.875H37.5ZM9.375 3.125H34.375V21.875H9.375V3.125ZM40.625 96.875H3.125V25H40.625V96.875Z" fill="url(#paint2_linear_98_98)"/>
<path d="M9.37481 62.2124V71.3425L20.3123 76.03V81.5376C18.1601 82.2983 16.8684 84.4994 17.2544 86.7493C17.6405 88.9999 19.5921 90.6441 21.8748 90.6441C24.1575 90.6441 26.1091 88.9999 26.4952 86.7493C26.8812 84.4994 25.5896 82.2983 23.4373 81.5376V70.2126L34.3748 60.0563V53.125H37.4998V43.75H28.1248V53.125H31.2498V58.6922L23.4373 65.9485V37.1094L26.4952 40.1672L28.7046 37.9578L21.8748 31.1279L15.045 37.9578L17.2544 40.1672L20.3123 37.1094V72.6311L12.4998 69.2825V62.2124C14.6521 61.4517 15.9437 59.2506 15.5577 57.0007C15.1716 54.7501 13.22 53.1059 10.9373 53.1059C8.65459 53.1059 6.70299 54.7501 6.31695 57.0007C5.9309 59.2506 7.22256 61.4517 9.37481 62.2124ZM31.2498 46.875H34.3748V50H31.2498V46.875ZM21.8748 84.375C22.7377 84.375 23.4373 85.0746 23.4373 85.9375C23.4373 86.8004 22.7377 87.5 21.8748 87.5C21.0119 87.5 20.3123 86.8004 20.3123 85.9375C20.3123 85.0746 21.0119 84.375 21.8748 84.375ZM10.9373 56.25C11.8002 56.25 12.4998 56.9496 12.4998 57.8125C12.4998 58.6754 11.8002 59.375 10.9373 59.375C10.0744 59.375 9.37481 58.6754 9.37481 57.8125C9.37481 56.9496 10.0744 56.25 10.9373 56.25Z" fill="url(#paint3_linear_98_98)"/>
<defs>
<linearGradient id="paint0_linear_98_98" x1="15.9444" y1="6.25" x2="18.654" y2="6.30049" gradientUnits="userSpaceOnUse">
<stop stop-color="#C89AFC"/>
<stop offset="1" stop-color="#7C6AFA"/>
</linearGradient>
<linearGradient id="paint1_linear_98_98" x1="25.3194" y1="6.25" x2="28.029" y2="6.30049" gradientUnits="userSpaceOnUse">
<stop stop-color="#C89AFC"/>
<stop offset="1" stop-color="#7C6AFA"/>
</linearGradient>
<linearGradient id="paint2_linear_98_98" x1="4.47169" y1="-1.0863e-05" x2="42.3782" y2="1.23613" gradientUnits="userSpaceOnUse">
<stop stop-color="#C89AFC"/>
<stop offset="1" stop-color="#7C6AFA"/>
</linearGradient>
<linearGradient id="paint3_linear_98_98" x1="9.44316" y1="31.1279" x2="36.5072" y2="32.1872" gradientUnits="userSpaceOnUse">
<stop stop-color="#C89AFC"/>
<stop offset="1" stop-color="#7C6AFA"/>
</linearGradient>
</defs>
</svg>
