<svg width="60" height="60" viewBox="0 0 60 60" fill="none" xmlns="http://www.w3.org/2000/svg">
<circle cx="30" cy="30" r="29.5" fill="url(#paint0_linear_345_34)" stroke="white"/>
<path d="M34.5 19H25.5C21.3585 19 18 22.4685 18 26.7457V36.0405C18 40.3176 21.3585 43.7861 25.5 43.7861H34.5C38.6415 43.7861 42 40.3176 42 36.0405V26.7457C42 22.4685 38.6415 19 34.5 19ZM39.75 36.0405C39.75 39.0303 37.395 41.4624 34.5 41.4624H25.5C22.605 41.4624 20.25 39.0303 20.25 36.0405V26.7457C20.25 23.7558 22.605 21.3237 25.5 21.3237H34.5C37.395 21.3237 39.75 23.7558 39.75 26.7457V36.0405Z" fill="white"/>
<path d="M30 25.1963C26.6865 25.1963 24 27.9709 24 31.3931C24 34.8152 26.6865 37.5898 30 37.5898C33.3135 37.5898 36 34.8152 36 31.3931C36 27.9709 33.3135 25.1963 30 25.1963ZM30 35.2661C27.933 35.2661 26.25 33.5279 26.25 31.3931C26.25 29.2567 27.933 27.5201 30 27.5201C32.067 27.5201 33.75 29.2567 33.75 31.3931C33.75 33.5279 32.067 35.2661 30 35.2661Z" fill="white"/>
<path d="M36.4479 25.5581C36.8895 25.5581 37.2474 25.1884 37.2474 24.7324C37.2474 24.2764 36.8895 23.9067 36.4479 23.9067C36.0064 23.9067 35.6484 24.2764 35.6484 24.7324C35.6484 25.1884 36.0064 25.5581 36.4479 25.5581Z" fill="white"/>
<defs>
<linearGradient id="paint0_linear_345_34" x1="0" y1="0" x2="60" y2="60" gradientUnits="userSpaceOnUse">
<stop stop-color="#C89AFC"/>
<stop offset="1" stop-color="#7C6AFA"/>
</linearGradient>
</defs>
</svg>
