<svg width="177" height="100" viewBox="0 0 177 100" fill="none" xmlns="http://www.w3.org/2000/svg">
<path d="M113.158 0H7.89474C3.5349 0 0 3.5349 0 7.89474V71.0526C0 75.4125 3.5349 78.9474 7.89474 78.9474H44.7368V89.9131C44.7343 92.5756 42.5756 94.7343 39.9131 94.7368H31.5789V100H84.2105V94.7368H75.8763C73.2139 94.7343 71.0552 92.5756 71.0526 89.9131V78.9474H113.158C117.518 78.9474 121.053 75.4125 121.053 71.0526V7.89474C121.053 3.5349 117.518 0 113.158 0ZM48.769 94.7368C49.5785 93.2579 50.0026 91.599 50 89.9131V78.9474H55.2632V90.1316H60.5263V78.9474H65.7895V89.9131C65.7869 91.599 66.2109 93.2579 67.0205 94.7368H48.769ZM115.789 71.0526C115.789 72.5059 114.611 73.6842 113.158 73.6842H7.89474C6.44146 73.6842 5.26316 72.5059 5.26316 71.0526V57.8947H115.789V71.0526ZM115.789 52.6316H5.26316V7.89474C5.26316 6.44146 6.44146 5.26316 7.89474 5.26316H113.158C114.611 5.26316 115.789 6.44146 115.789 7.89474V52.6316Z" fill="url(#paint0_linear_98_84)"/>
<path d="M15.3684 23.2632H10.1052V10.1053H23.2631V15.3684H15.3684V23.2632Z" fill="url(#paint1_linear_98_84)"/>
<path d="M110.105 46.9474H96.9473V41.6842H104.842V33.7895H110.105V46.9474Z" fill="url(#paint2_linear_98_84)"/>
<path d="M55.5789 62.3158H60.842V67.579H55.5789V62.3158Z" fill="url(#paint3_linear_98_84)"/>
<path d="M145.263 10.5263H166.316V15.7895H145.263V10.5263Z" fill="url(#paint4_linear_98_84)"/>
<path d="M145.263 21.0526H166.316V26.3158H145.263V21.0526Z" fill="url(#paint5_linear_98_84)"/>
<path d="M145.263 31.5789H166.316V36.8421H145.263V31.5789Z" fill="url(#paint6_linear_98_84)"/>
<path d="M168.947 0H142.632C138.272 0 134.737 3.5349 134.737 7.89474V100H176.842V7.89474C176.842 3.5349 173.307 0 168.947 0ZM171.579 94.7368H140V7.89474C140 6.44146 141.178 5.26316 142.632 5.26316H168.947C170.401 5.26316 171.579 6.44146 171.579 7.89474V94.7368Z" fill="url(#paint7_linear_98_84)"/>
<path d="M158.421 68.7949V63.1578H153.157V68.7949C148.025 70.1197 144.678 75.0552 145.346 80.3132C146.014 85.5712 150.489 89.5135 155.789 89.5135C161.089 89.5135 165.564 85.5712 166.232 80.3132C166.9 75.0552 163.553 70.1197 158.421 68.7949V68.7949ZM155.789 84.2105C153.411 84.2169 151.325 82.6223 150.708 80.3248C150.092 78.0273 151.096 75.6026 153.157 74.4153V78.9473H158.421V74.4153C160.482 75.6026 161.486 78.0273 160.87 80.3248C160.253 82.6223 158.167 84.2169 155.789 84.2105Z" fill="url(#paint8_linear_98_84)"/>
<defs>
<linearGradient id="paint0_linear_98_84" x1="12.3728" y1="-1.0863e-05" x2="116.521" y2="9.3972" gradientUnits="userSpaceOnUse">
<stop stop-color="#C89AFC"/>
<stop offset="1" stop-color="#7C6AFA"/>
</linearGradient>
<linearGradient id="paint1_linear_98_84" x1="11.4501" y1="10.1053" x2="22.7996" y2="10.9512" gradientUnits="userSpaceOnUse">
<stop stop-color="#C89AFC"/>
<stop offset="1" stop-color="#7C6AFA"/>
</linearGradient>
<linearGradient id="paint2_linear_98_84" x1="98.2921" y1="33.7895" x2="109.642" y2="34.6355" gradientUnits="userSpaceOnUse">
<stop stop-color="#C89AFC"/>
<stop offset="1" stop-color="#7C6AFA"/>
</linearGradient>
<linearGradient id="paint3_linear_98_84" x1="56.1168" y1="62.3158" x2="60.6566" y2="62.6542" gradientUnits="userSpaceOnUse">
<stop stop-color="#C89AFC"/>
<stop offset="1" stop-color="#7C6AFA"/>
</linearGradient>
<linearGradient id="paint4_linear_98_84" x1="147.415" y1="10.5263" x2="164.184" y2="15.5261" gradientUnits="userSpaceOnUse">
<stop stop-color="#C89AFC"/>
<stop offset="1" stop-color="#7C6AFA"/>
</linearGradient>
<linearGradient id="paint5_linear_98_84" x1="147.415" y1="21.0526" x2="164.184" y2="26.0524" gradientUnits="userSpaceOnUse">
<stop stop-color="#C89AFC"/>
<stop offset="1" stop-color="#7C6AFA"/>
</linearGradient>
<linearGradient id="paint6_linear_98_84" x1="147.415" y1="31.5789" x2="164.184" y2="36.5787" gradientUnits="userSpaceOnUse">
<stop stop-color="#C89AFC"/>
<stop offset="1" stop-color="#7C6AFA"/>
</linearGradient>
<linearGradient id="paint7_linear_98_84" x1="139.04" y1="-1.0863e-05" x2="175.525" y2="1.14502" gradientUnits="userSpaceOnUse">
<stop stop-color="#C89AFC"/>
<stop offset="1" stop-color="#7C6AFA"/>
</linearGradient>
<linearGradient id="paint8_linear_98_84" x1="147.414" y1="63.1578" x2="165.611" y2="64.2414" gradientUnits="userSpaceOnUse">
<stop stop-color="#C89AFC"/>
<stop offset="1" stop-color="#7C6AFA"/>
</linearGradient>
</defs>
</svg>
