<svg width="105" height="95" viewBox="0 0 105 95" fill="none" xmlns="http://www.w3.org/2000/svg">
<path d="M76 30C76 46.5685 62.5685 60 46 60C29.4315 60 16 46.5685 16 30C16 13.4315 29.4315 0 46 0C62.5685 0 76 13.4315 76 30ZM27.4805 30C27.4805 40.228 35.772 48.5195 46 48.5195C56.228 48.5195 64.5195 40.228 64.5195 30C64.5195 19.772 56.228 11.4805 46 11.4805C35.772 11.4805 27.4805 19.772 27.4805 30Z" fill="url(#paint0_linear_200_699)"/>
<path d="M85.0002 53.4999C101 49.9999 70.6668 49 54.5001 40.5C48.0002 34.5 30.4493 24.5012 28.5001 45C26.2869 68.2758 65.4561 57.7752 85.0002 53.4999Z" fill="url(#paint1_linear_200_699)"/>
<path d="M13.008 88.312L7.032 78.616L5.688 79.888V88L2.664 88.312L2.184 68.8L5.688 69.28V77.128L12.744 68.8L16.56 69.616L8.952 76.792L16.992 87.712L13.008 88.312ZM30.4573 68.8L34.0093 69.28L33.5293 81.712C33.4813 82.976 33.1693 84.12 32.5933 85.144C32.0173 86.152 31.1933 86.952 30.1213 87.544C29.0493 88.136 27.7453 88.432 26.2093 88.432C24.8333 88.432 23.6413 88.152 22.6333 87.592C21.6253 87.032 20.8413 86.248 20.2813 85.24C19.7213 84.232 19.4173 83.056 19.3693 81.712L18.8893 68.8L22.5373 69.28V81.16C22.5373 82.52 22.9053 83.616 23.6413 84.448C24.3773 85.264 25.3133 85.672 26.4493 85.672C27.5853 85.672 28.5373 85.296 29.3053 84.544C30.0733 83.792 30.4573 82.664 30.4573 81.16V68.8ZM50.9291 88.312C48.8811 86.84 47.0731 85.232 45.5051 83.488C43.9531 81.744 42.6571 79.904 41.6171 77.968L44.4491 76.48C44.5611 76.688 44.6651 76.88 44.7611 77.056C44.8571 77.216 44.9771 77.4 45.1211 77.608C45.6171 77.528 46.0811 77.376 46.5131 77.152C46.9611 76.928 47.3211 76.6 47.5931 76.168C47.8811 75.72 48.0251 75.144 48.0251 74.44C48.0251 73.544 47.7531 72.84 47.2091 72.328C46.6651 71.816 45.9291 71.56 45.0011 71.56C44.4411 71.56 43.8491 71.568 43.2251 71.584C42.6171 71.6 42.0331 71.632 41.4731 71.68L41.4491 88L38.4971 88.312L38.0891 71.944L36.9131 72.112L36.4331 70C36.8811 69.904 37.4651 69.808 38.1851 69.712C38.9051 69.6 39.6891 69.496 40.5371 69.4C41.3851 69.288 42.2171 69.2 43.0331 69.136C43.8651 69.072 44.6091 69.04 45.2651 69.04C47.1211 69.04 48.5931 69.504 49.6811 70.432C50.7691 71.36 51.3131 72.696 51.3131 74.44C51.3131 75.48 51.0651 76.352 50.5691 77.056C50.0731 77.76 49.4251 78.312 48.6251 78.712C47.8411 79.096 47.0011 79.336 46.1051 79.432C47.6091 81.752 49.7931 84.192 52.6571 86.752L50.9291 88.312ZM65.8712 75.28C65.7752 74.416 65.5992 73.728 65.3432 73.216C65.1032 72.704 64.8312 72.32 64.5272 72.064C64.1432 71.728 63.7032 71.488 63.2072 71.344C62.7272 71.184 62.1192 71.104 61.3832 71.104C60.3592 71.104 59.5832 71.392 59.0552 71.968C58.5272 72.528 58.2632 73.192 58.2632 73.96C58.2632 74.456 58.5112 74.928 59.0072 75.376C59.5192 75.808 60.1912 76.16 61.0232 76.432L63.9032 77.368C65.3912 77.848 66.5432 78.488 67.3592 79.288C68.1912 80.088 68.6072 81.208 68.6072 82.648C68.6072 84.472 68.0072 85.896 66.8072 86.92C65.6232 87.928 63.9272 88.432 61.7192 88.432C59.8472 88.432 58.2872 87.992 57.0392 87.112C55.8072 86.232 54.9512 85.064 54.4712 83.608L56.2472 82.432C56.7112 83.504 57.4152 84.36 58.3592 85C59.3192 85.624 60.4392 85.936 61.7192 85.936C62.8072 85.936 63.6872 85.656 64.3592 85.096C65.0312 84.52 65.3672 83.824 65.3672 83.008C65.3672 82.336 65.0872 81.76 64.5272 81.28C63.9672 80.8 63.1912 80.384 62.1992 80.032L59.4872 79.096C58.0152 78.584 56.9352 77.96 56.2472 77.224C55.5592 76.488 55.2152 75.456 55.2152 74.128C55.2152 73.152 55.4632 72.264 55.9592 71.464C56.4552 70.664 57.1752 70.024 58.1192 69.544C59.0792 69.064 60.2232 68.824 61.5512 68.824C63.0552 68.824 64.3912 69.072 65.5592 69.568C66.7272 70.064 67.5832 70.68 68.1272 71.416L67.4552 75.28H65.8712ZM72.669 88.336L72.261 71.944L71.085 72.112L70.605 70C71.053 69.904 71.645 69.808 72.381 69.712C73.133 69.6 73.949 69.496 74.829 69.4C75.709 69.288 76.573 69.2 77.421 69.136C78.269 69.072 79.021 69.04 79.677 69.04C80.893 69.04 82.013 69.288 83.037 69.784C84.061 70.28 84.885 70.976 85.509 71.872C86.133 72.768 86.445 73.808 86.445 74.992C86.445 76.448 86.133 77.664 85.509 78.64C84.885 79.6 84.053 80.32 83.013 80.8C81.989 81.28 80.845 81.52 79.581 81.52C79.053 81.52 78.453 81.456 77.781 81.328C77.109 81.2 76.397 80.968 75.645 80.632V88L72.669 88.336ZM75.645 78.352C75.997 78.48 76.389 78.6 76.821 78.712C77.253 78.808 77.669 78.88 78.069 78.928C78.485 78.976 78.813 79 79.053 79C80.221 79 81.181 78.688 81.933 78.064C82.701 77.424 83.085 76.448 83.085 75.136C83.085 74.4 82.909 73.768 82.557 73.24C82.205 72.712 81.749 72.304 81.189 72.016C80.629 71.728 80.037 71.584 79.413 71.584C78.853 71.584 78.229 71.592 77.541 71.608C76.853 71.608 76.221 71.632 75.645 71.68V78.352ZM104.065 84.52C103.681 85.208 103.129 85.856 102.409 86.464C101.705 87.056 100.881 87.536 99.9371 87.904C99.0091 88.256 98.0091 88.432 96.9371 88.432C95.1931 88.432 93.6651 88.04 92.3531 87.256C91.0411 86.456 90.0171 85.32 89.2811 83.848C88.5451 82.36 88.1771 80.6 88.1771 78.568C88.1771 76.616 88.5451 74.912 89.2811 73.456C90.0171 71.984 91.0411 70.848 92.3531 70.048C93.6651 69.232 95.1851 68.824 96.9131 68.824C98.4171 68.824 99.7531 69.072 100.921 69.568C102.089 70.064 102.945 70.68 103.489 71.416L102.817 75.76H101.233C100.977 74.048 100.529 72.912 99.8891 72.352C99.5051 72.016 99.0651 71.776 98.5691 71.632C98.0891 71.472 97.4811 71.392 96.7451 71.392C95.7691 71.392 94.8811 71.656 94.0811 72.184C93.2971 72.696 92.6731 73.488 92.2091 74.56C91.7451 75.616 91.5131 76.952 91.5131 78.568C91.5131 80.04 91.7691 81.312 92.2811 82.384C92.7931 83.44 93.4811 84.256 94.3451 84.832C95.2091 85.392 96.1691 85.672 97.2251 85.672C97.9771 85.672 98.6971 85.544 99.3851 85.288C100.073 85.016 100.697 84.672 101.257 84.256C101.833 83.824 102.305 83.368 102.673 82.888L104.065 84.52Z" fill="#A785FB"/>
<defs>
<linearGradient id="paint0_linear_200_699" x1="46" y1="0" x2="46" y2="60" gradientUnits="userSpaceOnUse">
<stop stop-color="#C89AFC"/>
<stop offset="1" stop-color="#7C6AFA"/>
</linearGradient>
<linearGradient id="paint1_linear_200_699" x1="61.7544" y1="24" x2="61.7544" y2="59.6941" gradientUnits="userSpaceOnUse">
<stop stop-color="#C89AFC"/>
<stop offset="1" stop-color="#7C6AFA"/>
</linearGradient>
</defs>
</svg>
