<svg width="60" height="60" viewBox="0 0 60 60" fill="none" xmlns="http://www.w3.org/2000/svg">
<circle cx="30" cy="30" r="29.5" fill="url(#paint0_linear_345_18)" stroke="white"/>
<path fill-rule="evenodd" clip-rule="evenodd" d="M43.3735 34.3186C43.3735 34.3186 46.0415 36.9724 46.7015 38.2004C46.7144 38.2181 46.7244 38.2377 46.7312 38.2585C47.0002 38.7122 47.0662 39.0678 46.9342 39.3303C46.7114 39.764 45.9574 39.9817 45.7016 40H40.9859C40.6576 40 39.9745 39.9136 39.1429 39.3353C38.5076 38.8883 37.8757 38.1522 37.2635 37.4327C36.3494 36.3642 35.5591 35.4369 34.7588 35.4369C34.6577 35.4367 34.5574 35.4536 34.4618 35.4868C33.8563 35.6796 33.0874 36.5486 33.0874 38.8634C33.0874 39.5879 32.5198 40 32.1221 40H29.9623C29.2264 40 25.3951 39.7408 21.9977 36.1332C17.8348 31.7164 14.0958 22.8561 14.0595 22.778C13.8269 22.2047 14.3153 21.8923 14.8433 21.8923H19.6052C20.2438 21.8923 20.4517 22.2812 20.5969 22.6301C20.7652 23.0306 21.3889 24.6325 22.4119 26.4321C24.0685 29.3601 25.0865 30.5515 25.9 30.5515C26.0528 30.552 26.203 30.5118 26.3356 30.4352C27.3982 29.8469 27.2002 26.025 27.1507 25.2374C27.1507 25.0845 27.149 23.5308 26.6045 22.7797C26.2151 22.2413 25.5518 22.0319 25.1509 21.9555C25.2581 21.7993 25.4858 21.56 25.7779 21.4188C26.5055 21.0532 27.8206 21 29.1257 21H29.8501C31.2658 21.0199 31.6321 21.1113 32.1469 21.2426C33.1831 21.4919 33.2029 22.1682 33.1121 24.4713C33.0857 25.1294 33.0577 25.8705 33.0577 26.7429C33.0577 26.929 33.0494 27.1367 33.0494 27.3477C33.0181 28.5292 32.9768 29.8602 33.8051 30.4069C33.9125 30.4743 34.0366 30.51 34.1632 30.51C34.4503 30.51 35.3099 30.51 37.6414 26.4803C38.6644 24.7006 39.4564 22.6019 39.5108 22.444C39.557 22.356 39.6956 22.1084 39.8639 22.0087C39.9836 21.9445 40.1177 21.9125 40.2533 21.9156H45.8551C46.4656 21.9156 46.8797 22.0087 46.9606 22.2413C47.0959 22.6185 46.9342 23.7701 44.3767 27.253C43.946 27.833 43.5682 28.3348 43.2365 28.7735C40.9183 31.8377 40.9183 31.9922 43.3735 34.3186V34.3186Z" fill="white"/>
<defs>
<linearGradient id="paint0_linear_345_18" x1="0" y1="0" x2="60" y2="60" gradientUnits="userSpaceOnUse">
<stop stop-color="#C89AFC"/>
<stop offset="1" stop-color="#7C6AFA"/>
</linearGradient>
</defs>
</svg>
