<svg width="60" height="60" viewBox="0 0 60 60" fill="none" xmlns="http://www.w3.org/2000/svg">
<circle cx="30" cy="30" r="29.5" fill="url(#paint0_linear_345_21)" stroke="white"/>
<path d="M45.346 22.4347C45.1696 21.7702 44.8242 21.1644 44.3443 20.6779C43.8644 20.1913 43.2668 19.8411 42.6115 19.6622C40.198 19 30.5 19 30.5 19C30.5 19 20.8019 19 18.3885 19.6622C17.7332 19.8411 17.1356 20.1913 16.6557 20.6779C16.1758 21.1644 15.8304 21.7702 15.654 22.4347C15.2034 24.9302 14.9847 27.4631 15.0008 30C14.9847 32.5369 15.2034 35.0698 15.654 37.5653C15.8304 38.2298 16.1758 38.8356 16.6557 39.3221C17.1356 39.8087 17.7332 40.1589 18.3885 40.3378C20.8019 41 30.5 41 30.5 41C30.5 41 40.198 41 42.6115 40.3378C43.2668 40.1589 43.8644 39.8087 44.3443 39.3221C44.8242 38.8356 45.1696 38.2298 45.346 37.5653C45.7966 35.0698 46.0153 32.5369 45.9992 30C46.0153 27.4631 45.7966 24.9302 45.346 22.4347V22.4347ZM27.4002 34.7143V25.2857L35.4487 30L27.4002 34.7143Z" fill="white"/>
<defs>
<linearGradient id="paint0_linear_345_21" x1="0" y1="0" x2="60" y2="60" gradientUnits="userSpaceOnUse">
<stop stop-color="#C89AFC"/>
<stop offset="1" stop-color="#7C6AFA"/>
</linearGradient>
</defs>
</svg>
